<svg xmlns="http://www.w3.org/2000/svg" width="15" height="16.78" viewBox="0 0 15 16.78">
  <g id="layer1" transform="translate(-0.929 -289.074)">
    <g id="g14603" transform="translate(0.929 289.074)">
      <path id="path27806" d="M3.21.541a.876.876,0,0,0-.877.876v1.2h-.5a.9.9,0,1,0,0,1.8h.5V8.031h-.5a.9.9,0,1,0,0,1.8h.5V13.44h-.5a.9.9,0,0,0,0,1.8h.5v1.2a.876.876,0,0,0,.877.876h10.04a2.693,2.693,0,0,0,2.679-2.679V3.221A2.693,2.693,0,0,0,13.249.541Zm.876,1.752H6.235V15.57H4.086ZM8.44,3.81h4.112V6.67H8.44Z" transform="translate(-0.929 -0.541)" fill="#fafafa"/>
    </g>
  </g>
</svg>
