<svg xmlns="http://www.w3.org/2000/svg" width="15" height="16.59" viewBox="0 0 15 16.59">
  <g id="layer1" transform="translate(-0.529 -288.674)">
    <g id="g14603" transform="translate(0.529 288.674)">
      <path id="path12183" d="M3.9.141A4.462,4.462,0,0,0,2.044.513,2.431,2.431,0,0,0,.529,2.771V14.32a2.425,2.425,0,0,0,2.412,2.412h10.18a2.422,2.422,0,0,0,2.409-2.412V2.771A2.418,2.418,0,0,0,14.014.513,5.685,5.685,0,0,0,8.031,1.793,5.669,5.669,0,0,0,3.9.141Zm8.4,1.612a3.137,3.137,0,0,1,1.045.219.821.821,0,0,1,.578.8V9.835c-1.479-.649-3.836.48-5.089,1.2V3.866A1.686,1.686,0,0,1,9.565,2.55,4.542,4.542,0,0,1,12.3,1.754Zm-8.1.008a4.309,4.309,0,0,1,2.295.788,1.6,1.6,0,0,1,.736,1.316v7.221c-1.2-.7-3.568-1.866-5.089-1.294V2.771a.835.835,0,0,1,.578-.8A3.3,3.3,0,0,1,4.2,1.762Z" transform="translate(-0.529 -0.141)" fill="#fafafa"/>
    </g>
  </g>
</svg>
