<svg xmlns="http://www.w3.org/2000/svg" width="36" height="36" viewBox="0 0 36 36">
  <g id="_40-apps_-arrange_-array_-grid_-layout_-menu_-view" data-name="40-apps,-arrange,-array,-grid,-layout,-menu,-view" transform="translate(-6 -6)">
    <path id="Shape" d="M17,31V42H11a5.033,5.033,0,0,1-5-5V31Zm12,0V42H19V31Zm13,0v6a5.021,5.021,0,0,1-5,5H31V31ZM17,19V29H6V19Zm12,0V29H19V19Zm13,0V29H31V19ZM17,6V17H6V11a5.014,5.014,0,0,1,5-5ZM29,6V17H19V6Zm8,0a5.009,5.009,0,0,1,5,5v6H31V6Z" fill="#4b4b4b"/>
  </g>
</svg>
