<svg xmlns="http://www.w3.org/2000/svg" width="24.016" height="24.016" viewBox="0 0 24.016 24.016">
  <path id="Shape" d="M13.338,22.678v7.338h-4A3.358,3.358,0,0,1,6,26.68v-4Zm8.005,0v7.338H14.672V22.678Zm8.672,0v4a3.35,3.35,0,0,1-3.336,3.336h-4V22.678ZM13.338,14.672v6.671H6V14.672Zm8.005,0v6.671H14.672V14.672Zm8.672,0v6.671H22.678V14.672ZM13.338,6v7.338H6v-4A3.345,3.345,0,0,1,9.336,6Zm8.005,0v7.338H14.672V6ZM26.68,6a3.342,3.342,0,0,1,3.336,3.336v4H22.678V6Z" transform="translate(-6 -6)" fill="#e0e0e0"/>
</svg>
