<svg xmlns="http://www.w3.org/2000/svg" width="15" height="18.658" viewBox="0 0 15 18.658">
  <g id="layer1" transform="translate(-0.927 -288.639)">
    <path id="path9325" d="M3.629.106a2.717,2.717,0,0,0-2.7,2.7V14.263a2.718,2.718,0,0,0,2.7,2.7h.824v.9a.9.9,0,0,0,1.279.814l2.693-1.249,2.7,1.249a.9.9,0,0,0,1.279-.814v-.9h.824a2.718,2.718,0,0,0,2.7-2.7V2.806a2.717,2.717,0,0,0-2.7-2.7ZM5.738,3.37h5.383a.9.9,0,0,1,0,1.8H5.738a.9.9,0,1,1,0-1.8ZM8.425,8.183A2.23,2.23,0,1,1,6.2,10.415,2.22,2.22,0,0,1,8.425,8.183ZM10.6,13.8v2.659l-1.8-.833a.9.9,0,0,0-.757,0l-1.8.833V13.8a3.984,3.984,0,0,0,4.354,0Z" transform="translate(0 288.533)" fill="#fafafa"/>
  </g>
</svg>
