<svg xmlns="http://www.w3.org/2000/svg" width="28.913" height="30.555" viewBox="0 0 28.913 30.555">
  <g id="add" transform="translate(0.5)">
    <g id="Group_75" data-name="Group 75" transform="translate(0 0)">
      <path id="Path_14" data-name="Path 14" d="M3.211,18.8H19.444a3.218,3.218,0,0,1,3.211,3.211v16.7a3.218,3.218,0,0,1-3.211,3.211H3.211A3.218,3.218,0,0,1,0,38.713V21.975A3.21,3.21,0,0,1,3.211,18.8Z" transform="translate(0 -11.869)" fill="none" stroke="#1aab8b" stroke-width="1"/>
      <path id="Path_15" data-name="Path 15" d="M10.5,117.618l-4.762-4.762L0,118.592v3.788a3.218,3.218,0,0,0,3.211,3.211H19.444a3.218,3.218,0,0,0,3.211-3.211v-6.169L17.28,110.8Z" transform="translate(0 -95.572)" fill="#1aab8b"/>
      <circle id="Ellipse_20" data-name="Ellipse 20" cx="2.02" cy="2.02" r="2.02" transform="translate(8.333 12.558)" fill="#1aab8b"/>
      <path id="Subtraction_1" data-name="Subtraction 1" d="M19.444,23.124h-.036V7.631A3.215,3.215,0,0,0,16.2,4.419H0V3.175A3.134,3.134,0,0,1,.942.939,3.2,3.2,0,0,1,3.21,0H19.444a3.215,3.215,0,0,1,3.211,3.211v16.7A3.214,3.214,0,0,1,19.444,23.124Z" transform="translate(5.758 0)" fill="#1aab8b"/>
    </g>
  </g>
</svg>
