<svg xmlns="http://www.w3.org/2000/svg" width="242.706" height="206.919" viewBox="0 0 242.706 206.919">
  <g id="Group_1148" data-name="Group 1148" transform="translate(-852.152 -577.914)">
    <path id="Path_51481" data-name="Path 51481" d="M1213.719,841.7c-45.815-19.768-61.266-81.92-42.791-126.971,20.49-49.964,76.356-63.4,85.957-65.508,33.4-7.342,91.73-6.211,114.833,31.1,25.677,41.472-11.1,97.045-36.459,122.1C1328.611,809,1269.509,865.776,1213.719,841.7Z" transform="translate(-287.666 -62.783)" fill="#f4f4f4"/>
    <path id="Path_51482" data-name="Path 51482" d="M2187.371,1047.107l-101.313-30.1,25.531-89.6L2216.556,944.7Zm-100.265-30.655,99.673,29.611,28.7-100.7-103.269-17.014Z" transform="translate(-1140.75 -323.939)" fill="#444"/>
    <path id="Path_51483" data-name="Path 51483" d="M1005.4,2306.524l-.2-.366-34.919-63.08,40.795-21.182,6.814,12.306,28.308,51.14-.378.2Zm-33.961-63.106,34.311,61.983,39.284-20.4-27.9-50.408h0l-6.409-11.574-5.093,2.645Z" transform="translate(-109.21 -1523.777)" fill="#444"/>
    <ellipse id="Ellipse_202" data-name="Ellipse 202" cx="28.36" cy="27.466" rx="28.36" ry="27.466" transform="translate(1038.138 654.602)" fill="#2e2e2e" opacity="0.2" style="mix-blend-mode: multiply;isolation: isolate"/>
    <ellipse id="Ellipse_203" data-name="Ellipse 203" cx="28.36" cy="27.466" rx="28.36" ry="27.466" transform="translate(1035.33 654.602)" fill="#1aab8b"/>
    <path id="Path_51484" data-name="Path 51484" d="M3337.568,1331.655s30.134-89.4,29.277-89.4-10.073-1.66-10.073-1.66Z" transform="translate(-2297.775 -614.228)" fill="#3a7ec1" opacity="0.2" style="mix-blend-mode: multiply;isolation: isolate"/>
    <path id="Path_51485" data-name="Path 51485" d="M2601.3,2338.65l35.788-55.128-35.788-9.705Z" transform="translate(-1617.092 -1571.901)" fill="#c4c4c4" opacity="0.2" style="mix-blend-mode: multiply;isolation: isolate"/>
    <path id="Path_51486" data-name="Path 51486" d="M2522.28,2543.346a14.135,14.135,0,0,0-6.546,1.56l-5.959-4.616a8.127,8.127,0,0,0,1.6-4.783c0-5.294-5.362-9.586-11.976-9.586s-11.978,4.292-11.978,9.586,5.363,9.585,11.978,9.585a13.616,13.616,0,0,0,8.365-2.728l5.5,4.261a8.552,8.552,0,0,0-2.961,6.306c0,5.294,5.362,9.585,11.977,9.585s11.977-4.292,11.977-9.585S2528.895,2543.346,2522.28,2543.346Z" transform="translate(-1511.812 -1805.572)" fill="#a09c9c" opacity="0.2" style="mix-blend-mode: multiply;isolation: isolate"/>
    <g id="Group_1143" data-name="Group 1143" transform="translate(852.152 696.976)">
      <path id="Path_51487" data-name="Path 51487" d="M926.908,2268.975l-40.04,20.79-34.716-62.715L886.72,2209.1l5.471-2.841,6.611,11.94Z" transform="translate(-852.151 -2206.26)" fill="#4b9df4"/>
      <path id="Path_51513" data-name="Path 51513" d="M4.043,0A4.067,4.067,0,0,1,8.134,3.972,3.951,3.951,0,0,1,4.091,7.9,4.067,4.067,0,0,1,0,3.924,3.951,3.951,0,0,1,4.043,0Z" transform="translate(13.589 32.983) rotate(-10.968)" fill="#b3cef6"/>
      <path id="Path_51488" data-name="Path 51488" d="M1185.423,2490.05l-19.983,10.375a1.722,1.722,0,0,1-2.294-.67h0a1.616,1.616,0,0,1,.693-2.222l19.983-10.375a1.722,1.722,0,0,1,2.294.671h0A1.615,1.615,0,0,1,1185.423,2490.05Z" transform="translate(-1139.481 -2466.438)" fill="#b3cef6"/>
      <path id="Path_51514" data-name="Path 51514" d="M4.043,0A4.067,4.067,0,0,1,8.134,3.972,3.951,3.951,0,0,1,4.091,7.9,4.067,4.067,0,0,1,0,3.924,3.951,3.951,0,0,1,4.043,0Z" transform="translate(7.723 22.931) rotate(-10.968)" fill="#b3cef6"/>
      <path id="Path_51489" data-name="Path 51489" d="M1107.719,2352.574l-19.983,10.376a1.723,1.723,0,0,1-2.294-.671h0a1.615,1.615,0,0,1,.693-2.221l19.983-10.376a1.722,1.722,0,0,1,2.294.671h0A1.615,1.615,0,0,1,1107.719,2352.574Z" transform="translate(-1067.644 -2339.014)" fill="#b3cef6"/>
      <path id="Path_51523" data-name="Path 51523" d="M4.059,0A4.02,4.02,0,0,1,8.133,3.945,3.988,3.988,0,0,1,4.073,7.878,4.02,4.02,0,0,1,0,3.932,3.988,3.988,0,0,1,4.059,0Z" transform="translate(20.079 42.792) rotate(-0.752)" fill="#b3cef6"/>
      <path id="Path_51490" data-name="Path 51490" d="M1263.087,2634.911l-19.983,10.375a1.722,1.722,0,0,1-2.293-.671h0a1.615,1.615,0,0,1,.693-2.222l19.983-10.375a1.722,1.722,0,0,1,2.294.67h0A1.615,1.615,0,0,1,1263.087,2634.911Z" transform="translate(-1211.281 -2600.707)" fill="#b3cef6"/>
      <ellipse id="Ellipse_207" data-name="Ellipse 207" cx="4.072" cy="3.943" rx="4.072" ry="3.943" transform="translate(25.988 53.326)" fill="#b3cef6"/>
      <path id="Path_51491" data-name="Path 51491" d="M1340.749,2779.773l-19.983,10.375a1.722,1.722,0,0,1-2.294-.671h0a1.616,1.616,0,0,1,.693-2.222l19.983-10.375a1.723,1.723,0,0,1,2.294.671h0A1.615,1.615,0,0,1,1340.749,2779.773Z" transform="translate(-1283.08 -2734.977)" fill="#b3cef6"/>
      <ellipse id="Ellipse_208" data-name="Ellipse 208" cx="4.072" cy="3.943" rx="4.072" ry="3.943" transform="translate(31.851 63.918)" fill="#b3cef6"/>
      <path id="Path_51492" data-name="Path 51492" d="M1418.411,2924.635l-19.983,10.375a1.722,1.722,0,0,1-2.293-.671h0a1.615,1.615,0,0,1,.693-2.221l19.983-10.376a1.723,1.723,0,0,1,2.293.671h0A1.616,1.616,0,0,1,1418.411,2924.635Z" transform="translate(-1354.88 -2869.247)" fill="#b3cef6"/>
    </g>
    <path id="Path_51493" data-name="Path 51493" d="M1275.561,2218.2l-5.347,10.357-2.627,5.089-6.993,13.543-.917,1.775.131-1.366.994-10.429.373-3.919,1-10.462.217-2.275.276-2.906.137-1.438.675-7.067,5.471-2.841Z" transform="translate(-376.759 -1509.284)" fill="#3a7ec1" opacity="0.2" style="mix-blend-mode: multiply;isolation: isolate"/>
    <path id="Path_51494" data-name="Path 51494" d="M3415.521,1893.073a4.029,4.029,0,0,1-2.7-1.4l-7.659-9.029a3.791,3.791,0,0,1,.551-5.452,4.09,4.09,0,0,1,5.629.534l5.121,6.037,15.945-12.687a4.091,4.091,0,0,1,5.629.534,3.791,3.791,0,0,1-.551,5.452l-19.035,15.146A4.078,4.078,0,0,1,3415.521,1893.073Z" transform="translate(-2359.424 -1197.795)" fill="#fff"/>
    <g id="Group_1144" data-name="Group 1144" transform="translate(972.532 707.333)">
      <path id="Path_51495" data-name="Path 51495" d="M2556.3,2476.585a1.374,1.374,0,0,1-.1-1.984c1.392-1.488-.944-3.83-.969-3.853l-34.05-29.876a1.374,1.374,0,0,1-.1-1.984,1.483,1.483,0,0,1,2.048-.1l34.112,29.933c1.546,1.524,3.674,5.021,1.108,7.763A1.484,1.484,0,0,1,2556.3,2476.585Z" transform="translate(-2515.116 -2431.808)" fill="#636466"/>
      <path id="Path_51496" data-name="Path 51496" d="M2538.054,2510.4a1.484,1.484,0,0,0,2.048-.1c1.393-1.488,4.028.533,4.055.554l34.046,29.881a1.483,1.483,0,0,0,2.047-.1,1.374,1.374,0,0,0-.1-1.984l-34.112-29.934c-1.716-1.34-5.519-3.047-8.085-.3A1.374,1.374,0,0,0,2538.054,2510.4Z" transform="translate(-2530.713 -2495.32)" fill="#636466"/>
      <path id="Path_51515" data-name="Path 51515" d="M10.475,0A11.065,11.065,0,0,1,21.289,10.816,10.242,10.242,0,0,1,10.816,21.289,11.065,11.065,0,0,1,0,10.475,10.242,10.242,0,0,1,10.475,0Z" transform="translate(0 15.055) rotate(-45)" fill="#f2f2f2" opacity="0.28"/>
      <path id="Path_51516" data-name="Path 51516" d="M10.475,0A11.065,11.065,0,0,1,21.289,10.816,10.242,10.242,0,0,1,10.816,21.289,11.065,11.065,0,0,1,0,10.475,10.242,10.242,0,0,1,10.475,0Z" transform="translate(25.544 37.47) rotate(-45)" fill="#f2f2f2" opacity="0.28"/>
      <path id="Path_51497" data-name="Path 51497" d="M2526.226,2413.02a12.911,12.911,0,0,0-14.907-1.409,9.455,9.455,0,0,0-7.722-6.776,11.915,11.915,0,0,0-2.914-14.23,12.874,12.874,0,0,0-17.75.847,11.914,11.914,0,0,0,.875,17.19,12.613,12.613,0,0,0,5.833,2.883,12.359,12.359,0,0,0,3.434.234,12.693,12.693,0,0,0,8.482-3.964c.09-.1.188-.2.272-.3.294.006.583.019.872.045a6.938,6.938,0,0,1,3.874,1.631,6.561,6.561,0,0,1,2.056,3.573,6.974,6.974,0,0,1,.125.842c-.1.091-.188.188-.28.285a11.92,11.92,0,0,0-2.661,11.851,12.026,12.026,0,0,0,3.536,5.339,12.867,12.867,0,0,0,17.75-.847A11.92,11.92,0,0,0,2526.226,2413.02Zm-34.429-4.05a9.752,9.752,0,0,1-6.042-2.409,9.159,9.159,0,0,1-.673-13.223,9.9,9.9,0,0,1,13.653-.652,9.166,9.166,0,0,1,1.58,12.087l-.006.007a8.864,8.864,0,0,1-.9,1.13,8.39,8.39,0,0,1-.606.593,9.569,9.569,0,0,1-4.613,2.281A9.989,9.989,0,0,1,2491.8,2408.97Zm19.5,20.006a9.136,9.136,0,0,1-3.113-7.911,9,9,0,0,1,1.89-4.67,8.393,8.393,0,0,1,.549-.643,9.027,9.027,0,0,1,1.073-.979l.006-.007a9.924,9.924,0,0,1,12.575.334,9.166,9.166,0,0,1,.673,13.224A9.892,9.892,0,0,1,2511.3,2428.977Z" transform="translate(-2477.19 -2384.569)" fill="#636466"/>
    </g>
    <g id="Group_1147" data-name="Group 1147" transform="translate(882.918 606.723)">
      <path id="Path_51498" data-name="Path 51498" d="M2185.835,989.075l-26.439,92.769a8.617,8.617,0,0,1-14.095,3.724,8.048,8.048,0,0,1-2.279-8.1l4.788-16.8-84.914-22.694,18.82-66.053Z" transform="translate(-2002.255 -971.92)" fill="#fff"/>
      <path id="Path_51499" data-name="Path 51499" d="M2320.742,1136.618l-.591,2.075-74.676-19.958,2.134-7.489C2260.353,1115.619,2320.742,1136.618,2320.742,1136.618Z" transform="translate(-2171.049 -1101.059)" fill="#3a7ec1" opacity="0.2" style="mix-blend-mode: multiply;isolation: isolate"/>
      <path id="Path_51500" data-name="Path 51500" d="M3079.789,1483.486a11.841,11.841,0,0,0-7.526.465l-11.086,38.907,11.94,3.191-7.182,25.206a8.9,8.9,0,0,0,1.033,7.765,9.489,9.489,0,0,0,5.077-6.321l7.132-25.03,8.531-29.942.139-.487A11.146,11.146,0,0,0,3079.789,1483.486Z" transform="translate(-2925.169 -1445.706)" fill="#3a7ec1" opacity="0.2" style="mix-blend-mode: multiply;isolation: isolate"/>
      <path id="Path_51501" data-name="Path 51501" d="M1995.709,1257.638l-89.87-24.019a11.435,11.435,0,0,1-8.268-14.114l18.27-64.12,70.842,18.933-3.072,10.78a11.15,11.15,0,0,1,4.606-6.251c.267-.178.543-.346.825-.5a11.842,11.842,0,0,1,8.771-1.053,11.145,11.145,0,0,1,8.058,13.754l-16.09,56.472A8.2,8.2,0,0,0,1995.709,1257.638Z" transform="translate(-1849.013 -1141.971)" fill="#4b9df4"/>
      <path id="Path_51502" data-name="Path 51502" d="M2816,1551.373l-16.572-4.429,18.421-64.651a7.759,7.759,0,1,1,11.965,7.562l-15.423,54.127A8.025,8.025,0,0,0,2816,1551.373Z" transform="translate(-2683.184 -1439.414)" fill="#1e64ad"/>
      <g id="Group_1146" data-name="Group 1146" transform="translate(0 7.826)">
        <path id="Path_51503" data-name="Path 51503" d="M1360.955,1231.149l33.308-116.9a11.6,11.6,0,0,1,14.2-7.806l-101.375-27.094A11.51,11.51,0,0,0,1293,1087.1l-33.331,116.98Z" transform="translate(-1259.666 -1078.949)" fill="#fff"/>
        <g id="Group_1145" data-name="Group 1145" transform="translate(11.792 16.924)">
          <path id="Path_51517" data-name="Path 51517" d="M5.285,0a5.583,5.583,0,0,1,5.456,5.456,5.167,5.167,0,0,1-5.284,5.284A5.583,5.583,0,0,1,0,5.285,5.167,5.167,0,0,1,5.285,0Z" transform="translate(24.88 7.596) rotate(-45)" fill="#e0e0e0"/>
          <path id="Path_51504" data-name="Path 51504" d="M2035.25,1444.327l-62.664-16.748a2.584,2.584,0,0,1-1.863-3.18l.031-.109a2.689,2.689,0,0,1,3.283-1.8l62.664,16.748a2.583,2.583,0,0,1,1.863,3.18l-.031.109A2.689,2.689,0,0,1,2035.25,1444.327Z" transform="translate(-1928.743 -1414.205)" fill="#e0e0e0"/>
          <ellipse id="Ellipse_212" data-name="Ellipse 212" cx="5.456" cy="5.284" rx="5.456" ry="5.284" transform="translate(22.044 19.775)" fill="#e0e0e0"/>
          <path id="Path_51505" data-name="Path 51505" d="M1969.339,1683.174l-62.663-16.747a2.585,2.585,0,0,1-1.864-3.18l.031-.109a2.689,2.689,0,0,1,3.284-1.8l62.664,16.747a2.585,2.585,0,0,1,1.863,3.18l-.031.109A2.689,2.689,0,0,1,1969.339,1683.174Z" transform="translate(-1867.808 -1635.588)" fill="#e0e0e0"/>
          <ellipse id="Ellipse_213" data-name="Ellipse 213" cx="5.456" cy="5.284" rx="5.456" ry="5.284" transform="translate(17.068 37.24)" fill="#e0e0e0"/>
          <path id="Path_51518" data-name="Path 51518" d="M2.744.524,67.488,0a2.633,2.633,0,0,1,2.7,2.626A2.74,2.74,0,0,1,67.444,5.3L2.7,5.821A2.633,2.633,0,0,1,0,3.195H0A2.74,2.74,0,0,1,2.744.524Z" transform="translate(32.893 41.988) rotate(15.427)" fill="#e0e0e0"/>
          <path id="Path_51519" data-name="Path 51519" d="M5.285,0a5.583,5.583,0,0,1,5.456,5.456,5.167,5.167,0,0,1-5.284,5.284A5.583,5.583,0,0,1,0,5.285,5.167,5.167,0,0,1,5.285,0Z" transform="translate(9.952 59.988) rotate(-45)" fill="#e0e0e0"/>
          <path id="Path_51506" data-name="Path 51506" d="M1837.518,2160.868l-62.663-16.747a2.584,2.584,0,0,1-1.863-3.18l.031-.11a2.689,2.689,0,0,1,3.283-1.8l62.663,16.748a2.583,2.583,0,0,1,1.863,3.18l-.031.109A2.689,2.689,0,0,1,1837.518,2160.868Z" transform="translate(-1745.939 -2078.354)" fill="#e0e0e0"/>
          <path id="Path_51520" data-name="Path 51520" d="M5.285,0a5.583,5.583,0,0,1,5.456,5.456,5.167,5.167,0,0,1-5.284,5.284A5.583,5.583,0,0,1,0,5.285,5.167,5.167,0,0,1,5.285,0Z" transform="translate(4.976 77.452) rotate(-45)" fill="#e0e0e0"/>
          <path id="Path_51507" data-name="Path 51507" d="M1771.607,2399.714l-62.663-16.747a2.585,2.585,0,0,1-1.864-3.18l.031-.11a2.689,2.689,0,0,1,3.283-1.8l62.664,16.747a2.584,2.584,0,0,1,1.863,3.18l-.031.109A2.689,2.689,0,0,1,1771.607,2399.714Z" transform="translate(-1685.004 -2299.736)" fill="#e0e0e0"/>
          <path id="Path_51521" data-name="Path 51521" d="M5.285,0a5.583,5.583,0,0,1,5.456,5.456,5.167,5.167,0,0,1-5.284,5.284A5.583,5.583,0,0,1,0,5.285,5.167,5.167,0,0,1,5.285,0Z" transform="translate(0 94.916) rotate(-45)" fill="#e0e0e0"/>
          <path id="Path_51508" data-name="Path 51508" d="M1705.7,2638.561l-62.663-16.747a2.584,2.584,0,0,1-1.863-3.18l.031-.11a2.689,2.689,0,0,1,3.283-1.8l62.664,16.748a2.584,2.584,0,0,1,1.863,3.18l-.031.109A2.689,2.689,0,0,1,1705.7,2638.561Z" transform="translate(-1624.069 -2521.119)" fill="#e0e0e0"/>
          <path id="Path_51509" data-name="Path 51509" d="M1706.081,1606.565a1.453,1.453,0,0,1-.883-.666l-2.176-3.714a1.392,1.392,0,0,1,.55-1.93,1.488,1.488,0,0,1,1.992.532l1.455,2.484,6.559-3.6a1.488,1.488,0,0,1,1.993.533,1.392,1.392,0,0,1-.55,1.93l-7.83,4.3A1.5,1.5,0,0,1,1706.081,1606.565Z" transform="translate(-1681.166 -1578.346)" fill="#1aab8b"/>
          <path id="Path_51510" data-name="Path 51510" d="M1578.15,2070.16a1.455,1.455,0,0,1-.882-.666l-2.176-3.714a1.392,1.392,0,0,1,.55-1.93,1.488,1.488,0,0,1,1.993.532l1.455,2.483,6.558-3.6a1.488,1.488,0,0,1,1.992.532,1.392,1.392,0,0,1-.55,1.93l-7.83,4.3A1.5,1.5,0,0,1,1578.15,2070.16Z" transform="translate(-1562.893 -2008.044)" fill="#1aab8b"/>
          <path id="Path_51511" data-name="Path 51511" d="M1510.294,2316.057a1.45,1.45,0,0,1-.882-.666l-2.176-3.714a1.393,1.393,0,0,1,.55-1.93,1.488,1.488,0,0,1,1.993.533l1.455,2.483,6.558-3.6a1.488,1.488,0,0,1,1.993.533,1.391,1.391,0,0,1-.55,1.929l-7.83,4.3A1.5,1.5,0,0,1,1510.294,2316.057Z" transform="translate(-1500.16 -2235.961)" fill="#1aab8b"/>
          <path id="Path_51512" data-name="Path 51512" d="M1446.328,2547.854a1.453,1.453,0,0,1-.882-.666l-2.176-3.714a1.393,1.393,0,0,1,.55-1.93,1.488,1.488,0,0,1,1.992.532l1.455,2.483,6.559-3.6a1.487,1.487,0,0,1,1.992.532,1.392,1.392,0,0,1-.55,1.93l-7.83,4.3A1.5,1.5,0,0,1,1446.328,2547.854Z" transform="translate(-1441.024 -2450.809)" fill="#1aab8b"/>
        </g>
      </g>
    </g>
    <ellipse id="Ellipse_217" data-name="Ellipse 217" cx="6.545" cy="6.338" rx="6.545" ry="6.338" transform="translate(979.075 577.914)" fill="#4786d1"/>
    <path id="Path_51522" data-name="Path 51522" d="M5.171,0a5.371,5.371,0,0,1,5.242,5.4,5.2,5.2,0,0,1-5.171,5.325A5.371,5.371,0,0,1,0,5.325,5.2,5.2,0,0,1,5.171,0Z" transform="translate(853.522 672.658) rotate(-77.715)" fill="#4786d1"/>
    <ellipse id="Ellipse_219" data-name="Ellipse 219" cx="6.545" cy="6.338" rx="6.545" ry="6.338" transform="translate(1047.895 747.825)" fill="#4786d1"/>
  </g>
</svg>
