<svg xmlns="http://www.w3.org/2000/svg" width="20.028" height="15" viewBox="0 0 20.028 15">
  <g id="mail_1_" data-name="mail (1)" transform="translate(0 -64.266)">
    <path id="Path_6" data-name="Path 6" d="M11.688,176.968a3.013,3.013,0,0,1-3.347,0L.133,171.5Q.065,171.451,0,171.4v8.965a1.843,1.843,0,0,0,1.844,1.844h16.34a1.843,1.843,0,0,0,1.844-1.844V171.4c-.044.033-.088.064-.134.095Z" transform="translate(0 -102.945)"/>
    <path id="Path_7" data-name="Path 7" d="M.784,67.575l8.207,5.471a1.839,1.839,0,0,0,2.046,0l8.207-5.471a1.757,1.757,0,0,0,.784-1.466,1.845,1.845,0,0,0-1.843-1.843H1.843A1.845,1.845,0,0,0,0,66.11a1.757,1.757,0,0,0,.784,1.465Z" transform="translate(0)"/>
  </g>
</svg>
