<svg xmlns="http://www.w3.org/2000/svg" width="19.464" height="21.623" viewBox="0 0 19.464 21.623">
  <g id="layer1" transform="translate(-0.53 -288.637)">
    <path id="path11322" d="M9.762.1A1.043,1.043,0,0,0,9,.434L.811,9.19A1.043,1.043,0,0,0,.53,9.9v8.7a3.145,3.145,0,0,0,3.128,3.128H16.866A3.145,3.145,0,0,0,19.994,18.6V3.233A3.145,3.145,0,0,0,16.866.1ZM8.72,3.789V7.818A1.017,1.017,0,0,1,7.678,8.86h-3.7Zm5.041,1.263h1.081a1.041,1.041,0,0,1,0,2.083H13.761a1.041,1.041,0,1,1,0-2.083ZM5.56,12.5H12a1.042,1.042,0,0,1,0,2.084H5.56a1.042,1.042,0,1,1,0-2.084Zm0,3.625H12a1.042,1.042,0,0,1,0,2.084H5.56a1.042,1.042,0,1,1,0-2.084Z" transform="translate(0 288.533)" fill="#f4f4f4"/>
  </g>
</svg>
