<svg id="file-and-folder" xmlns="http://www.w3.org/2000/svg" width="27.362" height="30.979" viewBox="0 0 27.362 30.979">
  <path id="Path_18" data-name="Path 18" d="M33.834,215.34,32.2,216.979h1.634Z" transform="translate(-32.06 -202.303)" fill="#761b1b"/>
  <path id="Path_19" data-name="Path 19" d="M452.73,215.34l1.635,1.639H452.73Z" transform="translate(-427.145 -202.303)" fill="#761b1b"/>
  <path id="Path_20" data-name="Path 20" d="M83.05,6.491a.6.6,0,0,0-.177-.428L76.857.047a.605.605,0,0,0-.428-.177h-16.6a.605.605,0,0,0-.605.605V30.244a.605.605,0,0,0,.605.605h22.62a.605.605,0,0,0,.605-.605Z" transform="translate(-57.445 0.13)" fill="#c4c4c4"/>
  <path id="Path_21" data-name="Path 21" d="M350.241,6.34a.6.6,0,0,0-.157-.277L344.068.047a.605.605,0,0,0-.428-.177V5.613a.726.726,0,0,0,.726.726Z" transform="translate(-324.656 0.13)" fill="#a09c9c"/>
  <path id="Path_23" data-name="Path 23" d="M56.647,249.318H30.5a.605.605,0,0,1-.605-.605v-9.278a.605.605,0,0,1,.605-.605H56.647a.605.605,0,0,1,.605.605v9.277a.605.605,0,0,1-.605.606Z" transform="translate(-29.89 -224.371)" fill="#bc3131"/>
</svg>
