<svg xmlns="http://www.w3.org/2000/svg" width="15" height="15.048" viewBox="0 0 15 15.048">
  <path id="Exclusion_1" data-name="Exclusion 1" d="M3396.206,2890.492h-13.549a.727.727,0,0,1-.725-.726v-7.457a2.179,2.179,0,0,1,2.177-2.177h2.624v-2.51a2.18,2.18,0,0,1,2.177-2.177h5.844a2.18,2.18,0,0,1,2.177,2.177v12.145A.727.727,0,0,1,3396.206,2890.492Zm-4.376-3.812a.725.725,0,0,0-.725.728v1.633h1.454v-1.633a.726.726,0,0,0-.726-.728Zm-7.721-5.1a.709.709,0,0,0-.725.725v6.732h3.349v-1.982h-1.218a.725.725,0,0,1,0-1.451h1.218v-1.15h-1.218a.725.725,0,0,1,0-1.45h1.218v-1.425Zm7.493.827a.674.674,0,0,0-.483.158.731.731,0,0,0,0,.933.663.663,0,0,0,.479.165.648.648,0,0,0,.473-.168.619.619,0,0,0,.17-.46.613.613,0,0,0-.168-.466A.658.658,0,0,0,3391.6,2882.41Zm.137-3.415a.852.852,0,0,1,.5.126.422.422,0,0,1,.177.365.65.65,0,0,1-.124.388,2.349,2.349,0,0,1-.511.452,1.964,1.964,0,0,0-.554.558,1.209,1.209,0,0,0-.152.617v.273h.979v-.221a.626.626,0,0,1,.094-.359,2.181,2.181,0,0,1,.449-.4,2.662,2.662,0,0,0,.7-.665,1.3,1.3,0,0,0,.185-.7,1.2,1.2,0,0,0-.449-.976,1.868,1.868,0,0,0-1.21-.366,3.544,3.544,0,0,0-1.749.462l.4.81A2.856,2.856,0,0,1,3391.739,2878.995Z" transform="translate(-3381.932 -2875.444)" fill="#fafafa"/>
</svg>
