<svg id="layer1" xmlns="http://www.w3.org/2000/svg" width="11.767" height="13.163" viewBox="0 0 11.767 13.163">
  <g id="g14603" transform="translate(0)">
    <path id="path27806" d="M2.718.541a.687.687,0,0,0-.688.687v.945h-.4a.706.706,0,1,0,0,1.413h.4v2.83h-.4a.706.706,0,1,0,0,1.413h.4v2.83h-.4a.707.707,0,0,0,0,1.414h.4v.944a.687.687,0,0,0,.688.687h7.876a2.112,2.112,0,0,0,2.1-2.1V2.643a2.112,2.112,0,0,0-2.1-2.1Zm.687,1.374H5.091V12.331H3.405Zm3.416,1.19h3.226V5.349H6.821Z" transform="translate(-0.929 -0.541)" fill="#fafafa"/>
  </g>
</svg>
