<svg xmlns="http://www.w3.org/2000/svg" width="22.603" height="25" viewBox="0 0 22.603 25">
  <g id="layer1" transform="translate(0 0)">
    <g id="g14603" transform="translate(0 0)">
      <path id="path12183" d="M5.608.141a6.724,6.724,0,0,0-2.8.56A3.664,3.664,0,0,0,.529,4.1v17.4a3.654,3.654,0,0,0,3.634,3.634H19.5a3.65,3.65,0,0,0,3.63-3.634V4.1A3.643,3.643,0,0,0,20.85.7a8.567,8.567,0,0,0-9.017,1.93A8.542,8.542,0,0,0,5.608.141Zm12.659,2.43a4.727,4.727,0,0,1,1.575.33,1.237,1.237,0,0,1,.87,1.2V14.749c-2.229-.978-5.78.723-7.669,1.8V5.754a2.541,2.541,0,0,1,1.1-1.983A6.844,6.844,0,0,1,18.267,2.571Zm-12.21.013A6.494,6.494,0,0,1,9.515,3.771a2.414,2.414,0,0,1,1.108,1.983V16.635c-1.808-1.05-5.377-2.812-7.669-1.95V4.1a1.258,1.258,0,0,1,.87-1.2A4.968,4.968,0,0,1,6.057,2.584Z" transform="translate(-0.529 -0.141)" fill="#fafafa"/>
    </g>
  </g>
</svg>
