<svg id="sort" xmlns="http://www.w3.org/2000/svg" width="22.002" height="22.003" viewBox="0 0 22.002 22.003">
  <path id="Path_8" data-name="Path 8" d="M1.648,10.937a1,1,0,0,0,1.289-.585L3.443,9H6.557l.506,1.352A1,1,0,0,0,8,11a1.038,1.038,0,0,0,.352-.063,1,1,0,0,0,.585-1.289l-3-8a1,1,0,0,0-1.874,0l-3,8a1,1,0,0,0,.585,1.289ZM5,4.848,5.807,7H4.193Z" transform="translate(-0.999 -0.997)" fill="#403f3f"/>
  <path id="Path_9" data-name="Path 9" d="M8,21H4l4.8-6.4A1,1,0,0,0,8,13H2a1,1,0,0,0,0,2H6L1.2,21.4A1,1,0,0,0,2,23H8a1,1,0,0,0,0-2Z" transform="translate(-0.999 -0.997)" fill="#403f3f"/>
  <path id="Path_10" data-name="Path 10" d="M13,13a1,1,0,0,0,2,0V4.414l2.293,2.293a1,1,0,1,0,1.414-1.414l-4-4a.99.99,0,0,0-.326-.217,1,1,0,0,0-.764,0,.99.99,0,0,0-.326.217l-4,4a1,1,0,1,0,1.414,1.414L13,4.414Z" transform="translate(-0.999 -0.997)" fill="#403f3f"/>
  <path id="Path_11" data-name="Path 11" d="M22.707,17.293a1,1,0,0,0-1.414,0L19,19.586V10a1,1,0,0,0-2,0v9.586l-2.293-2.293a1,1,0,1,0-1.414,1.414l4,4a1,1,0,0,0,1.416,0l4-4A1,1,0,0,0,22.707,17.293Z" transform="translate(-0.999 -0.997)" fill="#403f3f"/>
</svg>
