<svg xmlns="http://www.w3.org/2000/svg" width="21" height="26.511" viewBox="0 0 21 26.511">
  <path id="trending-topic" d="M71.035,8.487a.777.777,0,0,0-1.232.2,8.948,8.948,0,0,1-1.459,2.056,10.273,10.273,0,0,0,.087-1.332A10.566,10.566,0,0,0,62.742.086a.777.777,0,0,0-1.131.629,8.918,8.918,0,0,1-3.717,6.563l-.085.062c-.059.043-.114.084-.166.118l-.024.017a10.582,10.582,0,0,0-3.235,3.742,10.386,10.386,0,0,0-1.165,4.794,10.5,10.5,0,1,0,21,0,10.413,10.413,0,0,0-3.184-7.523Z" transform="translate(-53.219 0.001)" fill="#fff"/>
</svg>
