<svg xmlns="http://www.w3.org/2000/svg" width="21.799" height="21.869" viewBox="0 0 21.799 21.869">
  <g id="layer1" transform="translate(-0.132 -288.639)">
    <path id="path12591" d="M10.274.106A3.181,3.181,0,0,0,7.11,3.27V6.918H3.3A3.181,3.181,0,0,0,.133,10.083V20.92a1.055,1.055,0,0,0,1.055,1.055H20.877a1.055,1.055,0,0,0,1.055-1.055V3.27A3.181,3.181,0,0,0,18.767.106Zm1.7,4.292H15.6a1.053,1.053,0,1,1,0,2.107H11.978a1.053,1.053,0,0,1,0-2.107Zm.063,5.181h5.672a1.057,1.057,0,0,1,0,2.114H12.041a1.057,1.057,0,1,1,0-2.114ZM3.3,9.028H7.11V11.1H5.341a1.053,1.053,0,1,0,0,2.107H7.11v1.671H5.341a1.054,1.054,0,0,0,0,2.108H7.11v2.88H2.242V10.083A1.03,1.03,0,0,1,3.3,9.028Zm11.221,7.407a1.055,1.055,0,0,1,1.059,1.059v2.372H13.464V17.494A1.055,1.055,0,0,1,14.518,16.435Z" transform="translate(0 288.533)" fill="#767676"/>
  </g>
</svg>
