<svg xmlns="http://www.w3.org/2000/svg" width="21.799" height="21.869" viewBox="0 0 21.799 21.869">
  <g id="Group_284" data-name="Group 284" transform="translate(-0.133 -288.639)">
    <path id="path12591" d="M10.274.106A3.181,3.181,0,0,0,7.11,3.27V6.918H3.3A3.181,3.181,0,0,0,.133,10.083V20.92a1.055,1.055,0,0,0,1.055,1.055H20.877a1.055,1.055,0,0,0,1.055-1.055V3.27A3.181,3.181,0,0,0,18.767.106ZM3.3,9.028H7.11V11.1H5.341a1.053,1.053,0,1,0,0,2.107H7.11v1.671H5.341a1.054,1.054,0,0,0,0,2.108H7.11v2.88H2.242V10.083A1.03,1.03,0,0,1,3.3,9.028Zm11.221,7.407a1.055,1.055,0,0,1,1.059,1.059v2.372H13.464V17.494A1.055,1.055,0,0,1,14.518,16.435Z" transform="translate(0 288.533)" fill="#767676"/>
    <path id="Path_51366" data-name="Path 51366" d="M7.9-3.937a4.758,4.758,0,0,1-.607,2.508A3.025,3.025,0,0,1,5.575-.075L7.444,1.869H6.118L4.587.1l-.3.011A3.394,3.394,0,0,1,1.614-.953,4.358,4.358,0,0,1,.671-3.948a4.3,4.3,0,0,1,.945-2.973A3.418,3.418,0,0,1,4.3-7.976,3.345,3.345,0,0,1,6.945-6.9,4.319,4.319,0,0,1,7.9-3.937Zm-6.257,0a3.727,3.727,0,0,0,.679,2.42,2.411,2.411,0,0,0,1.974.824,2.388,2.388,0,0,0,1.971-.822,3.779,3.779,0,0,0,.666-2.422,3.749,3.749,0,0,0-.663-2.4A2.377,2.377,0,0,0,4.3-7.16a2.423,2.423,0,0,0-1.985.824A3.689,3.689,0,0,0,1.638-3.937Z" transform="translate(9.932 300.444)" fill="#fff"/>
  </g>
</svg>
