<svg xmlns="http://www.w3.org/2000/svg" width="21.799" height="21.869" viewBox="0 0 21.799 21.869">
  <g id="Group_284" data-name="Group 284" transform="translate(-0.133 -288.639)">
    <path id="path12591" d="M10.274.106A3.181,3.181,0,0,0,7.11,3.27V6.918H3.3A3.181,3.181,0,0,0,.133,10.083V20.92a1.055,1.055,0,0,0,1.055,1.055H20.877a1.055,1.055,0,0,0,1.055-1.055V3.27A3.181,3.181,0,0,0,18.767.106ZM3.3,9.028H7.11V11.1H5.341a1.053,1.053,0,1,0,0,2.107H7.11v1.671H5.341a1.054,1.054,0,0,0,0,2.108H7.11v2.88H2.242V10.083A1.03,1.03,0,0,1,3.3,9.028Zm11.221,7.407a1.055,1.055,0,0,1,1.059,1.059v2.372H13.464V17.494A1.055,1.055,0,0,1,14.518,16.435Z" transform="translate(0 288.533)" fill="#fff"/>
    <path id="Path_51367" data-name="Path 51367" d="M1.482-2.6V-3a1.762,1.762,0,0,1,.22-.9,2.885,2.885,0,0,1,.806-.811,3.371,3.371,0,0,0,.744-.655.949.949,0,0,0,.18-.564.611.611,0,0,0-.258-.532,1.229,1.229,0,0,0-.72-.183,4.133,4.133,0,0,0-1.837.526L.032-7.294a5.117,5.117,0,0,1,2.541-.671,2.7,2.7,0,0,1,1.759.532,1.736,1.736,0,0,1,.653,1.418A1.886,1.886,0,0,1,4.716-5,3.827,3.827,0,0,1,3.7-4.028a3.151,3.151,0,0,0-.653.58.9.9,0,0,0-.137.521V-2.6ZM1.311-.768a.9.9,0,0,1,.242-.682.98.98,0,0,1,.7-.231.952.952,0,0,1,.69.236.9.9,0,0,1,.244.677A.9.9,0,0,1,2.943-.1a.935.935,0,0,1-.687.244.963.963,0,0,1-.7-.239A.894.894,0,0,1,1.311-.768Z" transform="translate(11.932 300.444)" fill="#1e64ad"/>
  </g>
</svg>
