<svg xmlns="http://www.w3.org/2000/svg" width="21" height="21" viewBox="0 0 21 21">
  <path id="ui_1_" data-name="ui (1)" d="M17.665,0H3.335A3.339,3.339,0,0,0,0,3.335v14.33A3.339,3.339,0,0,0,3.335,21H17.665A3.339,3.339,0,0,0,21,17.665V3.335A3.339,3.339,0,0,0,17.665,0ZM4.2,8.317A2.492,2.492,0,0,1,6.693,5.828h7.862l-.5-.5A.656.656,0,0,1,14.98,4.4L16.6,6.02a.656.656,0,0,1,0,.928L14.98,8.572a.656.656,0,0,1-.928-.928l.5-.5H6.693A1.178,1.178,0,0,0,5.517,8.317V10.5a.656.656,0,0,1-1.312,0ZM16.8,12.683a2.492,2.492,0,0,1-2.489,2.489H6.445l.5.5a.656.656,0,1,1-.928.928L4.4,14.98a.656.656,0,0,1,0-.928L6.02,12.428a.656.656,0,0,1,.928.928l-.5.5h7.862a1.178,1.178,0,0,0,1.177-1.177V10.5a.656.656,0,0,1,1.313,0Z" fill="#fff"/>
</svg>
