<svg id="layer1" xmlns="http://www.w3.org/2000/svg" width="22.504" height="25" viewBox="0 0 22.504 25">
  <path id="path11322" d="M11.2.1a1.205,1.205,0,0,0-.881.381L.855,10.609a1.206,1.206,0,0,0-.325.824V21.488A3.636,3.636,0,0,0,4.147,25.1H19.417a3.636,3.636,0,0,0,3.617-3.617V3.721A3.636,3.636,0,0,0,19.417.1ZM10,4.365V9.022a1.176,1.176,0,0,1-1.2,1.206H4.514Zm5.829,1.46h1.25a1.2,1.2,0,1,1,0,2.408h-1.25a1.2,1.2,0,1,1,0-2.408Zm-9.481,8.61h7.445a1.2,1.2,0,0,1,0,2.41H6.346a1.2,1.2,0,1,1,0-2.41Zm0,4.191h7.445a1.2,1.2,0,0,1,0,2.41H6.346a1.2,1.2,0,1,1,0-2.41Z" transform="translate(-0.53 -0.105)" fill="#fafafa"/>
</svg>
